<svg width="16" height="16" viewBox="0 0 16 16" fill="none" xmlns="http://www.w3.org/2000/svg">
<path d="M7.99989 0C12.4183 0 15.9999 3.5816 15.9999 8V13.6C15.9999 14.2365 15.7471 14.847 15.297 15.297C14.8469 15.7471 14.2364 16 13.5999 16H8.39989V12.4904C8.39989 11.6896 8.44869 10.86 8.86869 10.1784C9.16939 9.68995 9.57165 9.27186 10.0481 8.95252C10.5246 8.63318 11.0642 8.42007 11.6303 8.32762L11.7835 8.30282C11.8467 8.28122 11.9015 8.24042 11.9403 8.18612C11.9791 8.13183 12 8.06675 12 8C12 7.93325 11.9791 7.86817 11.9403 7.81388C11.9015 7.75958 11.8467 7.71878 11.7835 7.69718L11.6303 7.67238C10.8032 7.53729 10.0394 7.14577 9.44674 6.55315C8.85412 5.96052 8.46264 5.19673 8.32751 4.3696L8.30271 4.21642C8.28111 4.15325 8.24031 4.0984 8.18601 4.05958C8.13172 4.02077 8.06664 3.9999 7.99989 3.9999C7.93314 3.9999 7.8681 4.02077 7.8138 4.05958C7.75951 4.0984 7.71871 4.15325 7.69711 4.21642L7.67231 4.3696C7.57989 4.93572 7.36678 5.4753 7.04744 5.95179C6.7281 6.42831 6.30998 6.83054 5.82149 7.1312C5.13989 7.5512 4.31029 7.6 3.50949 7.6H0.00950623C0.218706 3.3676 3.71589 0 7.99989 0Z" fill="#5F6FFF"/>
<path d="M0 8.4H3.5096C4.3104 8.4 5.14 8.4488 5.8216 8.8688C6.3544 9.19711 6.80289 9.6456 7.1312 10.1784C7.5512 10.86 7.6 11.6896 7.6 12.4904V16H2.4C1.76348 16 1.15303 15.7471 0.702943 15.297C0.252856 14.847 0 14.2365 0 13.6V8.4ZM16 0.8C16 1.01217 15.9157 1.21566 15.7657 1.36569C15.6157 1.51571 15.4122 1.6 15.2 1.6C14.9878 1.6 14.7843 1.51571 14.6343 1.36569C14.4843 1.21566 14.4 1.01217 14.4 0.8C14.4 0.587826 14.4843 0.384344 14.6343 0.234314C14.7843 0.0842856 14.9878 0 15.2 0C15.4122 0 15.6157 0.0842856 15.7657 0.234314C15.9157 0.384344 16 0.587826 16 0.8Z" fill="#5F6FFF"/>
</svg>
